<svg width="239" height="140" viewBox="0 0 239 140" fill="none" xmlns="http://www.w3.org/2000/svg">
<path d="M19.5 0H79.5L60 70L79.5 140H19.5L0 70L19.5 0Z" fill="#E7C4EB"/>
<path fill-rule="evenodd" clip-rule="evenodd" d="M139.5 70L159 0H99L79.5 70L99 140H159L139.5 70ZM156.367 138L137.424 70L156.367 2H100.519L81.5761 70L100.519 138H156.367Z" fill="#E7C4EB"/>
<path d="M177.05 7L175.379 13H235.379L237.05 7H177.05Z" fill="#E7C4EB"/>
<path d="M174.264 17L172.593 23H232.593L234.264 17H174.264Z" fill="#E7C4EB"/>
<path d="M171.479 27L169.807 33H229.807L231.479 27H171.479Z" fill="#E7C4EB"/>
<path d="M168.693 37L167.021 43H227.021L228.693 37H168.693Z" fill="#E7C4EB"/>
<path d="M165.907 47L164.236 53H224.236L225.907 47H165.907Z" fill="#E7C4EB"/>
<path d="M163.121 57L161.45 63H221.45L223.121 57H163.121Z" fill="#E7C4EB"/>
<path d="M159.5 70L160.336 73H220.336L219.5 70L220.336 67H160.336L159.5 70Z" fill="#E7C4EB"/>
<path d="M161.45 77L163.121 83H223.121L221.45 77H161.45Z" fill="#E7C4EB"/>
<path d="M164.236 87L165.907 93H225.907L224.236 87H164.236Z" fill="#E7C4EB"/>
<path d="M167.021 97L168.693 103H228.693L227.021 97H167.021Z" fill="#E7C4EB"/>
<path d="M169.807 107L171.479 113H231.479L229.807 107H169.807Z" fill="#E7C4EB"/>
<path d="M172.593 117L174.264 123H234.264L232.593 117H172.593Z" fill="#E7C4EB"/>
<path d="M175.379 127L177.05 133H237.05L235.379 127H175.379Z" fill="#E7C4EB"/>
<path d="M239 140L238.164 137H178.164L179 140H239Z" fill="#E7C4EB"/>
<path d="M178.164 3H238.164L239 0H179L178.164 3Z" fill="#E7C4EB"/>
</svg>
