<svg width="280" height="280" viewBox="0 0 280 280" fill="none" xmlns="http://www.w3.org/2000/svg">
<path fill-rule="evenodd" clip-rule="evenodd" d="M6.06066 3.93934L5 0L3.93934 3.93934L0 5L3.93934 6.06066L5 10L6.06066 6.06066L10 5L6.06066 3.93934ZM6.06066 93.9393L5 90L3.93934 93.9393L0 95L3.93934 96.0607L5 100L6.06066 96.0607L10 95L6.06066 93.9393ZM5 180L6.06066 183.939L10 185L6.06066 186.061L5 190L3.93934 186.061L0 185L3.93934 183.939L5 180ZM6.06066 273.939L5 270L3.93934 273.939L0 275L3.93934 276.061L5 280L6.06066 276.061L10 275L6.06066 273.939ZM95 0L96.0607 3.93934L100 5L96.0607 6.06066L95 10L93.9393 6.06066L90 5L93.9393 3.93934L95 0ZM96.0607 93.9393L95 90L93.9393 93.9393L90 95L93.9393 96.0607L95 100L96.0607 96.0607L100 95L96.0607 93.9393ZM95 180L96.0607 183.939L100 185L96.0607 186.061L95 190L93.9393 186.061L90 185L93.9393 183.939L95 180ZM96.0607 273.939L95 270L93.9393 273.939L90 275L93.9393 276.061L95 280L96.0607 276.061L100 275L96.0607 273.939ZM185 0L186.061 3.93934L190 5L186.061 6.06066L185 10L183.939 6.06066L180 5L183.939 3.93934L185 0ZM186.061 93.9393L185 90L183.939 93.9393L180 95L183.939 96.0607L185 100L186.061 96.0607L190 95L186.061 93.9393ZM185 180L186.061 183.939L190 185L186.061 186.061L185 190L183.939 186.061L180 185L183.939 183.939L185 180ZM186.061 273.939L185 270L183.939 273.939L180 275L183.939 276.061L185 280L186.061 276.061L190 275L186.061 273.939ZM275 0L276.061 3.93934L280 5L276.061 6.06066L275 10L273.939 6.06066L270 5L273.939 3.93934L275 0ZM276.061 93.9393L275 90L273.939 93.9393L270 95L273.939 96.0607L275 100L276.061 96.0607L280 95L276.061 93.9393ZM275 180L276.061 183.939L280 185L276.061 186.061L275 190L273.939 186.061L270 185L273.939 183.939L275 180ZM276.061 273.939L275 270L273.939 273.939L270 275L273.939 276.061L275 280L276.061 276.061L280 275L276.061 273.939Z" fill="#E7C4EB"/>
</svg>
